# Blender v2.79 (sub 0) OBJ File: 'Vases.blend'
# www.blender.org
mtllib Vase_05.mtl
o Vase_05_Circle.004
v 0.000000 0.000000 -0.700000
v -0.267878 0.000000 -0.646716
v -0.494975 0.000000 -0.494975
v -0.646716 0.000000 -0.267878
v -0.700000 0.000000 0.000000
v -0.646716 0.000000 0.267878
v -0.494975 0.000000 0.494975
v -0.267878 0.000000 0.646716
v -0.000000 0.000000 0.700000
v 0.267878 0.000000 0.646716
v 0.494975 0.000000 0.494975
v 0.646716 0.000000 0.267879
v 0.700000 0.000000 -0.000000
v 0.646716 0.000000 -0.267879
v 0.494975 0.000000 -0.494975
v 0.267878 0.000000 -0.646716
v -0.267878 0.124188 -0.646716
v 0.000000 0.124188 -0.700000
v -0.494975 0.124188 -0.494975
v -0.646716 0.124188 -0.267878
v -0.700000 0.124188 0.000000
v -0.646716 0.124188 0.267878
v -0.494975 0.124188 0.494975
v -0.267878 0.124188 0.646716
v -0.000000 0.124188 0.700000
v 0.267878 0.124188 0.646716
v 0.494975 0.124188 0.494975
v 0.646716 0.124188 0.267879
v 0.700000 0.124188 -0.000000
v 0.646716 0.124188 -0.267879
v 0.494975 0.124188 -0.494975
v 0.267878 0.124188 -0.646716
v -0.360324 0.197572 -0.869899
v 0.000000 0.197572 -0.941572
v -0.665792 0.197572 -0.665792
v -0.869899 0.197572 -0.360324
v -0.941572 0.197572 0.000000
v -0.869899 0.197572 0.360324
v -0.665792 0.197572 0.665792
v -0.360324 0.197572 0.869899
v -0.000000 0.197572 0.941572
v 0.360324 0.197572 0.869899
v 0.665792 0.197572 0.665792
v 0.869899 0.197572 0.360324
v 0.941572 0.197572 -0.000000
v 0.869899 0.197572 -0.360324
v 0.665792 0.197572 -0.665792
v 0.360324 0.197572 -0.869899
v -0.498498 0.989032 -1.203482
v 0.000000 0.989032 -1.302639
v -0.921105 0.989032 -0.921105
v -1.203482 0.989032 -0.498498
v -1.302639 0.989032 0.000000
v -1.203482 0.989032 0.498499
v -0.921105 0.989032 0.921105
v -0.498498 0.989032 1.203482
v -0.000000 0.989032 1.302639
v 0.498498 0.989032 1.203482
v 0.921105 0.989032 0.921105
v 1.203482 0.989032 0.498499
v 1.302639 0.989032 -0.000000
v 1.203482 0.989032 -0.498499
v 0.921105 0.989032 -0.921105
v 0.498498 0.989032 -1.203482
v -0.391105 1.721702 -0.944210
v 0.000000 1.721702 -1.022005
v -0.722667 1.721702 -0.722667
v -0.944210 1.721702 -0.391105
v -1.022005 1.721702 0.000000
v -0.944210 1.721702 0.391105
v -0.722667 1.721702 0.722667
v -0.391105 1.721702 0.944210
v -0.000000 1.721702 1.022005
v 0.391104 1.721702 0.944210
v 0.722667 1.721702 0.722667
v 0.944210 1.721702 0.391105
v 1.022005 1.721702 -0.000000
v 0.944210 1.721702 -0.391105
v 0.722667 1.721702 -0.722667
v 0.391104 1.721702 -0.944210
v 0.900307 0.593302 0.900308
v 0.487243 0.593302 1.176309
v -1.176308 0.593302 -0.487243
v -0.900307 0.593302 -0.900307
v 1.176308 0.593302 0.487243
v -1.273227 0.593302 0.000000
v 1.273227 0.593302 -0.000000
v -1.176308 0.593302 0.487243
v 1.176308 0.593302 -0.487243
v -0.900307 0.593302 0.900307
v 0.900307 0.593302 -0.900308
v -0.487243 0.593302 1.176308
v 0.487242 0.593302 -1.176309
v -0.000000 0.593302 1.273227
v -0.487243 0.593302 -1.176308
v 0.000000 0.593302 -1.273227
v 0.479675 1.355367 -1.158038
v 0.886324 1.355367 -0.886324
v -0.000000 1.355367 1.253451
v -0.479675 1.355367 1.158038
v -0.479675 1.355367 -1.158038
v 0.000000 1.355367 -1.253451
v 0.479675 1.355367 1.158038
v -0.886324 1.355367 -0.886324
v 0.886324 1.355367 0.886324
v -1.158038 1.355367 -0.479675
v 1.158038 1.355367 0.479675
v -1.253451 1.355367 0.000000
v 1.253451 1.355367 -0.000000
v -1.158038 1.355367 0.479675
v 1.158038 1.355367 -0.479675
v -0.886324 1.355367 0.886324
v -0.434053 2.106108 -1.047897
v 0.000000 2.106108 -1.134235
v -0.802025 2.106108 -0.802025
v -1.047897 2.106108 -0.434053
v -1.134235 2.106108 0.000000
v -1.047897 2.106108 0.434053
v -0.802025 2.106108 0.802025
v -0.434053 2.106108 1.047897
v -0.000000 2.106108 1.134235
v 0.434053 2.106108 1.047897
v 0.802025 2.106108 0.802026
v 1.047897 2.106108 0.434053
v 1.134235 2.106108 -0.000000
v 1.047897 2.106108 -0.434053
v 0.802025 2.106108 -0.802026
v 0.434053 2.106108 -1.047897
v -0.485762 2.106108 -1.172733
v 0.000000 2.106108 -1.269357
v -0.897571 2.106108 -0.897571
v -1.172733 2.106108 -0.485762
v -1.269357 2.106108 0.000000
v -1.172733 2.106108 0.485762
v -0.897571 2.106108 0.897571
v -0.485762 2.106108 1.172733
v -0.000000 2.106108 1.269357
v 0.485762 2.106108 1.172734
v 0.897571 2.106108 0.897572
v 1.172733 2.106108 0.485762
v 1.269357 2.106108 -0.000000
v 1.172733 2.106108 -0.485762
v 0.897571 2.106108 -0.897572
v 0.485762 2.106108 -1.172734
v -0.351604 1.657307 -0.848846
v 0.000000 1.657307 -0.918785
v -0.649679 1.657307 -0.649679
v -0.848846 1.657307 -0.351604
v -0.918785 1.657307 0.000000
v -0.848846 1.657307 0.351604
v -0.649679 1.657307 0.649679
v -0.351604 1.657307 0.848846
v -0.000000 1.657307 0.918785
v 0.351604 1.657307 0.848846
v 0.649679 1.657307 0.649679
v 0.848846 1.657307 0.351604
v 0.918785 1.657307 -0.000000
v 0.848846 1.657307 -0.351604
v 0.649679 1.657307 -0.649679
v 0.351603 1.657307 -0.848847
vt 0.286892 0.395966
vt 0.152381 0.194657
vt 0.353690 0.060147
vt 0.442128 0.737864
vt 0.386770 0.763970
vt 0.398205 0.727488
vt 0.437496 0.003983
vt 0.375217 0.032301
vt 0.375217 0.003983
vt 0.998009 0.003983
vt 0.935730 0.032300
vt 0.935730 0.003983
vt 0.499775 0.003983
vt 0.437496 0.032301
vt 0.063823 0.003984
vt 0.001544 0.032302
vt 0.001544 0.003984
vt 0.562055 0.003983
vt 0.499776 0.032301
vt 0.126102 0.003984
vt 0.063823 0.032302
vt 0.624334 0.003983
vt 0.562055 0.032301
vt 0.188381 0.003984
vt 0.126102 0.032301
vt 0.686613 0.003983
vt 0.624334 0.032300
vt 0.250659 0.003984
vt 0.188381 0.032301
vt 0.811171 0.003983
vt 0.748892 0.032300
vt 0.748892 0.003983
vt 0.686613 0.032300
vt 0.312938 0.003983
vt 0.250660 0.032301
vt 0.873450 0.003983
vt 0.811171 0.032300
vt 0.312938 0.032301
vt 0.873450 0.032300
vt 0.729874 0.808075
vt 0.691685 0.863814
vt 0.681394 0.823393
vt 0.804148 0.656445
vt 0.791697 0.712228
vt 0.772162 0.682449
vt 0.486265 0.744247
vt 0.434117 0.774774
vt 0.829647 0.623714
vt 0.829827 0.682557
vt 0.528778 0.783579
vt 0.481565 0.781258
vt 0.237066 0.639559
vt 0.168862 0.619606
vt 0.208945 0.600764
vt 0.573741 0.745478
vt 0.530247 0.746755
vt 0.273051 0.669850
vt 0.207025 0.667434
vt 0.621276 0.776166
vt 0.575444 0.781853
vt 0.312915 0.693924
vt 0.249308 0.701839
vt 0.658013 0.731819
vt 0.616433 0.740488
vt 0.354938 0.712943
vt 0.293887 0.728198
vt 0.698147 0.719432
vt 0.751422 0.735107
vt 0.709463 0.752965
vt 0.666021 0.766557
vt 0.339887 0.748598
vt 0.736414 0.703134
vt 0.359383 0.868732
vt 0.317617 0.809316
vt 0.370663 0.825236
vt 0.845022 0.803289
vt 0.777316 0.788434
vt 0.824317 0.763828
vt 0.416315 0.879688
vt 0.423724 0.836214
vt 0.898328 0.774542
vt 0.872333 0.732394
vt 0.472966 0.885756
vt 0.476622 0.842486
vt 0.960882 0.739029
vt 0.925201 0.689078
vt 0.529095 0.887054
vt 0.529099 0.844212
vt 0.124882 0.771413
vt 0.095663 0.674791
vt 0.156004 0.724575
vt 0.584419 0.883719
vt 0.580880 0.841526
vt 0.186393 0.804748
vt 0.211147 0.760440
vt 0.638677 0.875911
vt 0.631708 0.834553
vt 0.244877 0.831567
vt 0.264579 0.788019
vt 0.794214 0.827456
vt 0.702930 0.903953
vt 0.657713 0.976861
vt 0.646788 0.917125
vt 0.363984 0.425220
vt 0.316228 0.485341
vt 0.316228 0.430290
vt 0.288936 0.896927
vt 0.204355 0.939671
vt 0.227846 0.876160
vt 0.811022 0.865975
vt 0.776615 0.942865
vt 0.757580 0.886744
vt 0.718203 0.961937
vt 0.335423 0.976271
vt 0.269741 0.960347
vt 0.864224 0.842299
vt 0.832904 0.920455
vt 0.410373 0.923538
vt 0.349737 0.912753
vt 0.919594 0.816730
vt 0.887434 0.896047
vt 0.466731 0.992356
vt 0.401202 0.986996
vt 0.982711 0.791084
vt 0.941341 0.872025
vt 0.530408 0.930015
vt 0.470690 0.929270
vt 0.100565 0.820841
vt 0.004892 0.864549
vt 0.026313 0.787612
vt 0.595396 0.987116
vt 0.531601 0.992356
vt 0.165735 0.850673
vt 0.073301 0.888844
vt 0.589206 0.925901
vt 0.139138 0.915196
vt 0.863825 0.642493
vt 0.056237 0.730159
vt 0.302290 0.852759
vt 0.743428 0.847616
vt 0.367766 0.603918
vt 0.399471 0.533986
vt 0.419359 0.590546
vt 0.099038 0.270404
vt 0.034865 0.228251
vt 0.089692 0.223298
vt 0.432212 0.460434
vt 0.375542 0.479044
vt 0.118066 0.314498
vt 0.046473 0.286758
vt 0.451075 0.386008
vt 0.409611 0.410237
vt 0.104711 0.390107
vt 0.070106 0.341524
vt 0.514389 0.314498
vt 0.527745 0.390107
vt 0.486528 0.353614
vt 0.483711 0.430341
vt 0.181381 0.386008
vt 0.145928 0.353614
vt 0.585983 0.286758
vt 0.562350 0.341524
vt 0.222845 0.410237
vt 0.148744 0.430341
vt 0.533417 0.270404
vt 0.597591 0.228251
vt 0.256914 0.479044
vt 0.200244 0.460434
vt 0.542011 0.175279
vt 0.542764 0.223298
vt 0.268472 0.425220
vt 0.035799 0.168611
vt 0.090444 0.175280
vt 0.492245 0.262810
vt 0.483420 0.337722
vt 0.466029 0.326102
vt 0.429208 0.391935
vt 0.417587 0.374543
vt 0.358376 0.421274
vt 0.354296 0.400760
vt 0.281708 0.421275
vt 0.285789 0.400760
vt 0.210875 0.391935
vt 0.222496 0.374544
vt 0.174055 0.326102
vt 0.156663 0.337723
vt 0.127324 0.266891
vt 0.147838 0.262810
vt 0.127324 0.190223
vt 0.147838 0.194303
vt 0.156663 0.119391
vt 0.174055 0.131011
vt 0.210876 0.065178
vt 0.222496 0.082569
vt 0.281708 0.035838
vt 0.285788 0.056353
vt 0.358376 0.035838
vt 0.354295 0.056353
vt 0.417587 0.082569
vt 0.429208 0.065178
vt 0.483420 0.119391
vt 0.466029 0.131011
vt 0.492245 0.194303
vt 0.512760 0.190223
vt 0.512760 0.266890
vt 0.843514 0.239665
vt 0.995196 0.466673
vt 0.768188 0.618355
vt 0.006516 0.361143
vt 0.077924 0.389367
vt 0.022411 0.412015
vt 0.314658 0.608418
vt 0.357678 0.544817
vt 0.606906 0.412016
vt 0.564269 0.348158
vt 0.622801 0.361143
vt 0.271639 0.544817
vt 0.314659 0.548463
vt 0.582678 0.459489
vt 0.551393 0.389368
vt 0.209957 0.590546
vt 0.261551 0.603918
vt 0.550808 0.502208
vt 0.531767 0.427823
vt 0.190471 0.516276
vt 0.229846 0.533986
vt 0.512204 0.538956
vt 0.505951 0.462427
vt 0.078510 0.502208
vt 0.154637 0.492195
vt 0.117113 0.538956
vt 0.161350 0.568684
vt 0.438846 0.516277
vt 0.474680 0.492195
vt 0.046639 0.459488
vt 0.123367 0.462427
vt 0.467967 0.568685
vt 0.097550 0.427822
vt 0.415404 0.085709
vt 0.462638 0.132943
vt 0.488201 0.194657
vt 0.488201 0.261456
vt 0.462638 0.323169
vt 0.415404 0.370404
vt 0.353691 0.395966
vt 0.225178 0.370404
vt 0.177944 0.323169
vt 0.152381 0.261455
vt 0.177944 0.132943
vt 0.225178 0.085709
vt 0.286892 0.060147
vt 0.998009 0.032300
vt 0.996811 0.853168
vt 0.596657 0.168611
vt 0.698596 0.589529
vt 0.645332 0.536265
vt 0.616506 0.466673
vt 0.616506 0.391346
vt 0.645332 0.321754
vt 0.698596 0.268491
vt 0.768188 0.239665
vt 0.913106 0.268491
vt 0.966370 0.321754
vt 0.995196 0.391347
vt 0.966370 0.536265
vt 0.913106 0.589529
vt 0.843514 0.618355
vt 0.065049 0.348158
vn 0.5276 -0.6657 0.5276
vn -0.5276 -0.6657 0.5276
vn -0.5276 -0.6657 -0.5276
vn 0.5470 -0.6336 0.5470
vn 0.2201 -0.8180 0.5314
vn 0.2960 -0.6336 0.7147
vn 0.6894 -0.6657 0.2855
vn -0.7462 -0.6657 0.0000
vn -0.7147 -0.6336 -0.2960
vn -0.6894 -0.6657 -0.2855
vn 0.7462 -0.6657 0.0000
vn 0.7147 -0.6336 0.2960
vn -0.6894 -0.6657 0.2855
vn -0.7736 -0.6336 0.0000
vn 0.6894 -0.6657 -0.2855
vn 0.7736 -0.6336 0.0000
vn -0.7147 -0.6336 0.2960
vn 0.5276 -0.6657 -0.5276
vn 0.7147 -0.6336 -0.2960
vn -0.2855 -0.6657 0.6894
vn -0.5470 -0.6336 0.5470
vn 0.2855 -0.6657 -0.6894
vn 0.5470 -0.6336 -0.5470
vn 0.0000 -0.6657 0.7462
vn -0.2960 -0.6336 0.7147
vn -0.2855 -0.6657 -0.6894
vn 0.0000 -0.6336 -0.7736
vn 0.0000 -0.6657 -0.7462
vn 0.2960 -0.6336 -0.7147
vn 0.2855 -0.6657 0.6894
vn 0.0000 -0.6336 0.7736
vn -0.2960 -0.6336 -0.7147
vn -0.5470 -0.6336 -0.5470
vn 0.0000 -0.3637 -0.9315
vn 0.3825 0.0292 -0.9235
vn 0.3565 -0.3637 -0.8606
vn -0.4068 -0.8180 -0.4068
vn 0.4068 -0.8180 0.4068
vn -0.5314 -0.8180 -0.2201
vn 0.5752 -0.8180 0.0000
vn 0.5314 -0.8180 0.2201
vn -0.5752 -0.8180 0.0000
vn -0.5314 -0.8180 0.2201
vn 0.4068 -0.8180 -0.4068
vn 0.5314 -0.8180 -0.2201
vn -0.4068 -0.8180 0.4068
vn -0.2201 -0.8180 0.5314
vn -0.2201 -0.8180 -0.5314
vn 0.0000 -0.8180 -0.5752
vn 0.2201 -0.8180 -0.5314
vn 0.0000 -0.8180 0.5752
vn 0.3825 0.0292 0.9235
vn 0.0000 -0.3637 0.9315
vn 0.3565 -0.3637 0.8606
vn -0.7068 0.0292 -0.7068
vn -0.3565 -0.3637 -0.8606
vn -0.6587 -0.3637 -0.6587
vn 0.7068 0.0292 0.7068
vn 0.6587 -0.3637 0.6587
vn -0.9235 0.0292 -0.3825
vn -0.8606 -0.3637 -0.3565
vn 0.9235 0.0292 0.3825
vn 0.8606 -0.3637 0.3565
vn -0.9995 0.0292 0.0000
vn -0.9315 -0.3637 0.0000
vn 0.9995 0.0292 0.0000
vn 0.9315 -0.3637 0.0000
vn -0.9235 0.0292 0.3825
vn -0.8606 -0.3637 0.3565
vn 0.9235 0.0292 -0.3825
vn 0.8606 -0.3637 -0.3565
vn -0.7068 0.0292 0.7068
vn -0.6587 -0.3637 0.6587
vn 0.7068 0.0292 -0.7068
vn 0.6587 -0.3637 -0.6587
vn -0.3825 0.0292 0.9235
vn -0.3565 -0.3637 0.8606
vn -0.3825 0.0292 -0.9235
vn 0.3608 0.3332 -0.8711
vn 0.7071 -0.0045 -0.7071
vn 0.6667 0.3332 -0.6667
vn 0.9239 -0.0045 -0.3827
vn 0.8988 0.4383 0.0000
vn 1.0000 -0.0045 0.0000
vn 0.0000 0.3332 0.9428
vn -0.3827 -0.0045 0.9239
vn -0.3608 0.3332 0.8711
vn -0.3608 0.3332 -0.8711
vn 0.0000 -0.0045 -1.0000
vn 0.0000 0.3332 -0.9428
vn 0.3827 -0.0045 -0.9239
vn 0.3827 -0.0045 0.9239
vn 0.0000 -0.0045 1.0000
vn -0.6667 0.3332 -0.6667
vn -0.3827 -0.0045 -0.9239
vn 0.6667 0.3332 0.6667
vn 0.3608 0.3332 0.8711
vn -0.8711 0.3332 -0.3608
vn -0.7071 -0.0045 -0.7071
vn 0.9239 -0.0045 0.3827
vn 0.7071 -0.0045 0.7071
vn -0.9428 0.3332 0.0000
vn -0.9239 -0.0045 -0.3827
vn 0.9428 0.3332 0.0000
vn 0.8711 0.3332 0.3608
vn -0.8711 0.3332 0.3608
vn -1.0000 -0.0045 0.0000
vn -0.6667 0.3332 0.6667
vn -0.9239 -0.0045 0.3827
vn 0.8711 0.3332 -0.3608
vn -0.7071 -0.0045 0.7071
vn 0.0000 0.0292 0.9995
vn 0.0000 0.0292 -0.9995
vn -0.4449 0.8764 -0.1843
vn -0.4079 0.8168 -0.4079
vn -0.3405 0.8764 -0.3405
vn -0.8304 0.4383 0.3439
vn 0.6355 0.4383 -0.6355
vn 0.8304 0.4383 -0.3439
vn -0.6355 0.4383 0.6355
vn 0.0000 0.4383 0.8988
vn -0.3439 0.4383 0.8304
vn 0.0000 0.4383 -0.8988
vn 0.3439 0.4383 -0.8304
vn -0.6355 0.4383 -0.6355
vn -0.3439 0.4383 -0.8304
vn 0.3439 0.4383 0.8304
vn -0.8304 0.4383 -0.3439
vn 0.8304 0.4383 0.3439
vn 0.6355 0.4383 0.6355
vn -0.8988 0.4383 0.0000
vn 0.0000 0.8764 0.4816
vn 0.1843 0.8764 0.4449
vn 0.3405 0.8764 0.3405
vn 0.4449 0.8764 0.1843
vn 0.4816 0.8764 0.0000
vn 0.4449 0.8764 -0.1843
vn 0.3405 0.8764 -0.3405
vn 0.1843 0.8764 -0.4449
vn 0.0000 0.8764 -0.4816
vn -0.1843 0.8764 -0.4449
vn -0.4816 0.8764 0.0000
vn -0.4449 0.8764 0.1843
vn -0.3405 0.8764 0.3405
vn -0.1843 0.8764 0.4449
vn 0.0000 0.8168 -0.5769
vn -0.5769 0.8168 0.0000
vn 0.0000 0.8168 0.5769
vn 0.5330 0.8168 0.2208
vn -0.5330 0.8168 -0.2208
vn 0.5769 0.8168 0.0000
vn -0.5330 0.8168 0.2208
vn 0.5330 0.8168 -0.2208
vn 0.4079 0.8168 -0.4079
vn -0.2208 0.8168 0.5330
vn -0.4079 0.8168 0.4079
vn 0.2208 0.8168 -0.5330
vn -0.2208 0.8168 -0.5330
vn 0.2208 0.8168 0.5330
vn 0.4079 0.8168 0.4079
usemtl None
s 1
f 11/1/1 7/2/2 3/3/3
f 27/4/4 42/5/5 26/6/6
f 12/7/7 27/8/4 11/9/1
f 5/10/8 20/11/9 4/12/10
f 13/13/11 28/14/12 12/7/7
f 6/15/13 21/16/14 5/17/8
f 14/18/15 29/19/16 13/13/11
f 7/20/2 22/21/17 6/15/13
f 15/22/18 30/23/19 14/18/15
f 8/24/20 23/25/21 7/20/2
f 16/26/22 31/27/23 15/22/18
f 9/28/24 24/29/25 8/24/20
f 2/30/26 18/31/27 1/32/28
f 1/32/28 32/33/29 16/26/22
f 10/34/30 25/35/31 9/28/24
f 3/36/3 17/37/32 2/30/26
f 11/9/1 26/38/6 10/34/30
f 4/12/10 19/39/33 3/36/3
f 96/40/34 64/41/35 93/42/36
f 20/43/9 35/44/37 19/45/33
f 28/46/12 43/47/38 27/4/4
f 21/48/14 36/49/39 20/43/9
f 28/46/12 45/50/40 44/51/41
f 22/52/17 37/53/42 21/54/14
f 30/55/19 45/50/40 29/56/16
f 23/57/21 38/58/43 22/52/17
f 30/55/19 47/59/44 46/60/45
f 24/61/25 39/62/46 23/57/21
f 32/63/29 47/59/44 31/64/23
f 25/65/31 40/66/47 24/61/25
f 18/67/27 33/68/48 34/69/49
f 18/67/27 48/70/50 32/63/29
f 26/6/6 41/71/51 25/65/31
f 19/45/33 33/68/48 17/72/32
f 58/73/52 94/74/53 82/75/54
f 51/76/55 95/77/56 84/78/57
f 59/79/58 82/75/54 81/80/59
f 52/81/60 84/78/57 83/82/61
f 60/83/62 81/80/59 85/84/63
f 53/85/64 83/82/61 86/86/65
f 61/87/66 85/84/63 87/88/67
f 54/89/68 86/90/65 88/91/69
f 62/92/70 87/88/67 89/93/71
f 55/94/72 88/91/69 90/95/73
f 63/96/74 89/93/71 91/97/75
f 56/98/76 90/95/73 92/99/77
f 64/41/35 91/97/75 93/42/36
f 94/74/53 56/98/76 92/99/77
f 49/100/78 96/40/34 95/77/56
f 97/101/79 79/102/80 98/103/81
f 78/104/82 141/105/83 77/106/84
f 99/107/85 72/108/86 100/109/87
f 101/110/88 66/111/89 102/112/90
f 102/112/90 80/113/91 97/101/79
f 99/107/85 74/114/92 73/115/93
f 104/116/94 65/117/95 101/110/88
f 105/118/96 74/114/92 103/119/97
f 106/120/98 67/121/99 104/116/94
f 105/118/96 76/122/100 75/123/101
f 108/124/102 68/125/103 106/120/98
f 109/126/104 76/122/100 107/127/105
f 110/128/106 69/129/107 108/130/102
f 109/126/104 78/131/82 77/132/84
f 112/133/108 70/134/109 110/128/106
f 98/103/81 78/131/82 111/135/110
f 100/109/87 71/136/111 112/133/108
f 33/68/48 96/40/34 34/69/49
f 41/71/51 92/99/77 40/66/47
f 93/42/36 47/59/44 48/70/50
f 92/99/77 39/62/46 40/66/47
f 91/97/75 46/60/45 47/59/44
f 39/62/46 88/91/69 38/58/43
f 46/60/45 87/88/67 45/50/40
f 38/58/43 86/90/65 37/53/42
f 87/88/67 44/51/41 45/50/40
f 86/86/65 36/49/39 37/137/42
f 85/84/63 43/47/38 44/51/41
f 83/82/61 35/44/37 36/49/39
f 81/80/59 42/5/5 43/47/38
f 84/78/57 33/68/48 35/44/37
f 42/5/5 94/74/53 41/71/51
f 96/40/34 48/70/50 34/69/49
f 56/98/76 112/133/108 55/94/72
f 62/92/70 98/103/81 111/135/110
f 55/94/72 110/128/106 54/89/68
f 62/92/70 109/126/104 61/87/66
f 54/89/68 108/130/102 53/138/64
f 61/87/66 107/127/105 60/83/62
f 53/85/64 106/120/98 52/81/60
f 60/83/62 105/118/96 59/79/58
f 51/76/55 106/120/98 104/116/94
f 59/79/58 103/119/97 58/73/52
f 49/100/78 104/116/94 101/110/88
f 58/73/52 99/107/85 57/139/112
f 50/140/113 97/101/79 64/41/35
f 49/100/78 102/112/90 50/140/113
f 57/139/112 100/109/87 56/98/76
f 64/41/35 98/103/81 63/96/74
f 124/141/114 155/142/115 123/143/116
f 71/144/111 134/145/117 70/146/109
f 78/104/82 143/147/118 142/148/119
f 72/149/86 135/150/120 71/144/111
f 80/151/91 143/147/118 79/152/80
f 72/149/86 137/153/121 136/154/122
f 65/155/95 130/156/123 66/157/89
f 66/157/89 144/158/124 80/151/91
f 74/159/92 137/153/121 73/160/93
f 65/155/95 131/161/125 129/162/126
f 75/163/101 138/164/127 74/159/92
f 67/165/99 132/166/128 131/161/125
f 75/163/101 140/167/129 139/168/130
f 69/169/107 132/166/128 68/170/103
f 76/171/100 141/105/83 140/167/129
f 70/146/109 133/172/131 69/173/107
f 114/174/132 129/175/126 113/176/133
f 113/176/133 131/177/125 115/178/134
f 115/178/134 132/179/128 116/180/135
f 116/180/135 133/181/131 117/182/136
f 117/182/136 134/183/117 118/184/137
f 119/185/138 134/183/117 135/186/120
f 119/185/138 136/187/122 120/188/139
f 120/188/139 137/189/121 121/190/140
f 121/190/140 138/191/127 122/192/141
f 122/192/141 139/193/130 123/194/116
f 123/194/116 140/195/129 124/196/114
f 124/196/114 141/197/83 125/198/142
f 126/199/143 141/197/83 142/200/119
f 126/199/143 143/201/118 127/202/144
f 128/203/145 143/201/118 144/204/124
f 128/203/145 130/205/123 114/174/132
f 153/206/146 157/207/147 146/208/148
f 117/209/136 148/210/149 116/211/135
f 125/212/142 156/213/150 124/141/114
f 118/214/137 149/215/151 117/216/136
f 125/212/142 158/217/152 157/218/147
f 119/219/138 150/220/153 118/214/137
f 127/221/144 158/217/152 126/222/143
f 120/223/139 151/224/154 119/219/138
f 127/221/144 160/225/155 159/226/156
f 121/227/140 152/228/157 120/223/139
f 113/229/133 146/230/148 114/231/132
f 114/231/132 160/225/155 128/232/145
f 121/227/140 154/233/158 153/234/146
f 115/235/134 145/236/159 113/229/133
f 123/143/116 154/233/158 122/237/141
f 116/211/135 147/238/160 115/235/134
f 3/3/3 2/239/26 1/240/28
f 1/240/28 16/241/22 15/242/18
f 15/242/18 14/243/15 13/244/11
f 13/244/11 12/245/7 11/1/1
f 11/1/1 10/246/30 7/2/2
f 10/246/30 9/247/24 7/2/2
f 9/247/24 8/248/20 7/2/2
f 7/2/2 6/249/13 3/3/3
f 6/249/13 5/250/8 3/3/3
f 5/250/8 4/251/10 3/3/3
f 3/3/3 1/240/28 15/242/18
f 15/242/18 13/244/11 11/1/1
f 3/3/3 15/242/18 11/1/1
f 27/4/4 43/47/38 42/5/5
f 12/7/7 28/14/12 27/8/4
f 5/10/8 21/252/14 20/11/9
f 13/13/11 29/19/16 28/14/12
f 6/15/13 22/21/17 21/16/14
f 14/18/15 30/23/19 29/19/16
f 7/20/2 23/25/21 22/21/17
f 15/22/18 31/27/23 30/23/19
f 8/24/20 24/29/25 23/25/21
f 16/26/22 32/33/29 31/27/23
f 9/28/24 25/35/31 24/29/25
f 2/30/26 17/37/32 18/31/27
f 1/32/28 18/31/27 32/33/29
f 10/34/30 26/38/6 25/35/31
f 3/36/3 19/39/33 17/37/32
f 11/9/1 27/8/4 26/38/6
f 4/12/10 20/11/9 19/39/33
f 96/40/34 50/140/113 64/41/35
f 20/43/9 36/49/39 35/44/37
f 28/46/12 44/51/41 43/47/38
f 21/48/14 37/137/42 36/49/39
f 28/46/12 29/56/16 45/50/40
f 22/52/17 38/58/43 37/53/42
f 30/55/19 46/60/45 45/50/40
f 23/57/21 39/62/46 38/58/43
f 30/55/19 31/64/23 47/59/44
f 24/61/25 40/66/47 39/62/46
f 32/63/29 48/70/50 47/59/44
f 25/65/31 41/71/51 40/66/47
f 18/67/27 17/72/32 33/68/48
f 18/67/27 34/69/49 48/70/50
f 26/6/6 42/5/5 41/71/51
f 19/45/33 35/44/37 33/68/48
f 58/73/52 57/139/112 94/74/53
f 51/76/55 49/100/78 95/77/56
f 59/79/58 58/73/52 82/75/54
f 52/81/60 51/76/55 84/78/57
f 60/83/62 59/79/58 81/80/59
f 53/85/64 52/81/60 83/82/61
f 61/87/66 60/83/62 85/84/63
f 54/89/68 53/138/64 86/90/65
f 62/92/70 61/87/66 87/88/67
f 55/94/72 54/89/68 88/91/69
f 63/96/74 62/92/70 89/93/71
f 56/98/76 55/94/72 90/95/73
f 64/41/35 63/96/74 91/97/75
f 94/74/53 57/139/112 56/98/76
f 49/100/78 50/140/113 96/40/34
f 97/101/79 80/113/91 79/102/80
f 78/104/82 142/148/119 141/105/83
f 99/107/85 73/115/93 72/108/86
f 101/110/88 65/117/95 66/111/89
f 102/112/90 66/111/89 80/113/91
f 99/107/85 103/119/97 74/114/92
f 104/116/94 67/121/99 65/117/95
f 105/118/96 75/123/101 74/114/92
f 106/120/98 68/125/103 67/121/99
f 105/118/96 107/127/105 76/122/100
f 108/124/102 69/253/107 68/125/103
f 109/126/104 77/132/84 76/122/100
f 110/128/106 70/134/109 69/129/107
f 109/126/104 111/135/110 78/131/82
f 112/133/108 71/136/111 70/134/109
f 98/103/81 79/102/80 78/131/82
f 100/109/87 72/108/86 71/136/111
f 33/68/48 95/77/56 96/40/34
f 41/71/51 94/74/53 92/99/77
f 93/42/36 91/97/75 47/59/44
f 92/99/77 90/95/73 39/62/46
f 91/97/75 89/93/71 46/60/45
f 39/62/46 90/95/73 88/91/69
f 46/60/45 89/93/71 87/88/67
f 38/58/43 88/91/69 86/90/65
f 87/88/67 85/84/63 44/51/41
f 86/86/65 83/82/61 36/49/39
f 85/84/63 81/80/59 43/47/38
f 83/82/61 84/78/57 35/44/37
f 81/80/59 82/75/54 42/5/5
f 84/78/57 95/77/56 33/68/48
f 42/5/5 82/75/54 94/74/53
f 96/40/34 93/42/36 48/70/50
f 56/98/76 100/109/87 112/133/108
f 62/92/70 63/96/74 98/103/81
f 55/94/72 112/133/108 110/128/106
f 62/92/70 111/135/110 109/126/104
f 54/89/68 110/128/106 108/130/102
f 61/87/66 109/126/104 107/127/105
f 53/85/64 108/124/102 106/120/98
f 60/83/62 107/127/105 105/118/96
f 51/76/55 52/81/60 106/120/98
f 59/79/58 105/118/96 103/119/97
f 49/100/78 51/76/55 104/116/94
f 58/73/52 103/119/97 99/107/85
f 50/140/113 102/112/90 97/101/79
f 49/100/78 101/110/88 102/112/90
f 57/139/112 99/107/85 100/109/87
f 64/41/35 97/101/79 98/103/81
f 124/141/114 156/213/150 155/142/115
f 71/144/111 135/150/120 134/145/117
f 78/104/82 79/152/80 143/147/118
f 72/149/86 136/154/122 135/150/120
f 80/151/91 144/158/124 143/147/118
f 72/149/86 73/160/93 137/153/121
f 65/155/95 129/162/126 130/156/123
f 66/157/89 130/156/123 144/158/124
f 74/159/92 138/164/127 137/153/121
f 65/155/95 67/165/99 131/161/125
f 75/163/101 139/168/130 138/164/127
f 67/165/99 68/170/103 132/166/128
f 75/163/101 76/171/100 140/167/129
f 69/169/107 133/254/131 132/166/128
f 76/171/100 77/106/84 141/105/83
f 70/146/109 134/145/117 133/172/131
f 114/174/132 130/205/123 129/175/126
f 113/176/133 129/175/126 131/177/125
f 115/178/134 131/177/125 132/179/128
f 116/180/135 132/179/128 133/181/131
f 117/182/136 133/181/131 134/183/117
f 119/185/138 118/184/137 134/183/117
f 119/185/138 135/186/120 136/187/122
f 120/188/139 136/187/122 137/189/121
f 121/190/140 137/189/121 138/191/127
f 122/192/141 138/191/127 139/193/130
f 123/194/116 139/193/130 140/195/129
f 124/196/114 140/195/129 141/197/83
f 126/199/143 125/198/142 141/197/83
f 126/199/143 142/200/119 143/201/118
f 128/203/145 127/202/144 143/201/118
f 128/203/145 144/204/124 130/205/123
f 146/208/148 145/255/159 147/256/160
f 147/256/160 148/257/149 149/258/151
f 149/258/151 150/259/153 151/260/154
f 151/260/154 152/261/157 153/206/146
f 153/206/146 154/262/158 155/263/115
f 155/263/115 156/264/150 157/207/147
f 157/207/147 158/265/152 159/266/156
f 159/266/156 160/267/155 146/208/148
f 146/208/148 147/256/160 149/258/151
f 149/258/151 151/260/154 146/208/148
f 151/260/154 153/206/146 146/208/148
f 153/206/146 155/263/115 157/207/147
f 157/207/147 159/266/156 146/208/148
f 117/209/136 149/268/151 148/210/149
f 125/212/142 157/218/147 156/213/150
f 118/214/137 150/220/153 149/215/151
f 125/212/142 126/222/143 158/217/152
f 119/219/138 151/224/154 150/220/153
f 127/221/144 159/226/156 158/217/152
f 120/223/139 152/228/157 151/224/154
f 127/221/144 128/232/145 160/225/155
f 121/227/140 153/234/146 152/228/157
f 113/229/133 145/236/159 146/230/148
f 114/231/132 146/230/148 160/225/155
f 121/227/140 122/237/141 154/233/158
f 115/235/134 147/238/160 145/236/159
f 123/143/116 155/142/115 154/233/158
f 116/211/135 148/210/149 147/238/160
